<svg width="18" height="15" viewBox="0 0 18 15" fill="none" xmlns="http://www.w3.org/2000/svg">
<path fill-rule="evenodd" clip-rule="evenodd" d="M3.49998 1.4706H14.5V0.529419H3.49998V1.4706ZM0.999982 2.96951H0.407227L0.541655 3.54682L3.04166 14.2832L3.12638 14.6471H3.49998H14.5H14.8736L14.9583 14.2832L17.4583 3.54682L17.5927 2.96951H17H0.999982ZM3.87358 13.7059L1.59274 3.91068H16.4072L14.1264 13.7059H3.87358ZM11.353 9.00006C11.353 10.2996 10.2995 11.353 9.00003 11.353C7.70054 11.353 6.64709 10.2996 6.64709 9.00006C6.64709 7.70056 7.70054 6.64712 9.00003 6.64712C10.2995 6.64712 11.353 7.70056 11.353 9.00006ZM12.2941 9.00006C12.2941 10.8193 10.8193 12.2942 9.00003 12.2942C7.18074 12.2942 5.70591 10.8193 5.70591 9.00006C5.70591 7.18077 7.18074 5.70594 9.00003 5.70594C10.8193 5.70594 12.2941 7.18077 12.2941 9.00006Z" fill="white"/>
</svg>
